<svg viewBox="0 0 105 30" fill="none" xmlns="http://www.w3.org/2000/svg">
<path class="fill-current" d="M20.3453 0.881573V4.72157H5.22531V12.7616H18.8653V16.5216H5.22531V29.3616H0.945312V0.881573H20.3453Z"/>
<path class="fill-current" d="M28.2331 29.3616H23.9531V0.881573H28.2331V29.3616Z"/>
<path class="fill-current" d="M52.7216 9.52157V0.881573H56.8416V29.3616H51.9216L43.1616 15.5616C40.6016 11.5616 38.7482 8.50824 37.6016 6.40157C37.7082 9.57491 37.7616 14.3482 37.7616 20.7216V29.3616H33.6016V0.881573H38.5216L47.3216 14.6816C49.6949 18.4416 51.5482 21.5082 52.8816 23.8816C52.7749 20.6816 52.7216 15.8949 52.7216 9.52157Z"/>
<path class="fill-current" d="M82.5544 0.881573V4.72157H66.5144V12.7616H81.0344V16.5216H66.5144V25.5216H82.4344V29.3616H62.2344V0.881573H82.5544Z"/>
<path class="fill-current" d="M87.8988 2.72157H84.6987V0.881573H93.0987V2.72157H89.8988V11.0816H87.8988V2.72157ZM100.299 6.04157L102.259 0.881573H104.779V11.0816H102.779V7.80157C102.779 6.14824 102.792 5.06824 102.819 4.56157L102.579 5.24157L100.379 11.0816H98.7387L96.5387 5.24157C96.5121 5.16157 96.4587 5.04157 96.3787 4.88157C96.3254 4.69491 96.2854 4.56157 96.2588 4.48157C96.2854 5.0149 96.2987 6.12157 96.2987 7.80157V11.0816H94.3387V0.881573H96.8587L98.8587 6.20157C99.0987 6.76157 99.3388 7.44157 99.5788 8.24157C99.7654 7.65491 100.005 6.92157 100.299 6.04157Z"/>
</svg>
