<svg width="195" height="31" viewBox="0 0 195 31" fill="none" xmlns="http://www.w3.org/2000/svg">
<path d="M20.0258 9.52157V0.881572H24.1458V29.3616H19.2258L10.4658 15.5616C7.90578 11.5616 6.05245 8.50824 4.90578 6.40157C5.01245 9.57491 5.06578 14.3482 5.06578 20.7216V29.3616H0.905781V0.881572H5.82578L14.6258 14.6816C16.9991 18.4416 18.8524 21.5082 20.1858 23.8816C20.0791 20.6816 20.0258 15.8949 20.0258 9.52157ZM42.2586 30.0016C38.0453 30.0016 34.6853 28.6282 32.1786 25.8816C29.6186 23.1616 28.3386 19.5749 28.3386 15.1216C28.3386 10.6949 29.6186 7.0949 32.1786 4.32157C34.6853 1.60157 38.0453 0.24157 42.2586 0.24157C46.4186 0.24157 49.7786 1.60157 52.3386 4.32157C54.8719 7.0949 56.1386 10.6949 56.1386 15.1216C56.1386 19.5482 54.8719 23.1349 52.3386 25.8816C49.7786 28.6282 46.4186 30.0016 42.2586 30.0016ZM35.3786 23.1616C37.0853 25.1616 39.3786 26.1616 42.2586 26.1616C45.1386 26.1616 47.4319 25.1616 49.1386 23.1616C50.8453 21.2149 51.6986 18.5349 51.6986 15.1216C51.6986 11.7082 50.8453 9.0149 49.1386 7.04157C47.4053 5.06824 45.1119 4.08157 42.2586 4.08157C39.4053 4.08157 37.1119 5.06824 35.3786 7.04157C33.6453 9.06824 32.7786 11.7616 32.7786 15.1216C32.7786 18.5082 33.6453 21.1882 35.3786 23.1616ZM56.0598 0.881572H79.2998V4.72157H69.8598V29.3616H65.4998V4.72157H56.0598V0.881572ZM110.384 0.881572V4.72157H95.2639V12.7616H108.904V16.5216H95.2639V29.3616H90.9839V0.881572H110.384ZM118.272 29.3616H113.992V0.881572H118.272V29.3616ZM142.76 9.52157V0.881572H146.88V29.3616H141.96L133.2 15.5616C130.64 11.5616 128.787 8.50824 127.64 6.40157C127.747 9.57491 127.8 14.3482 127.8 20.7216V29.3616H123.64V0.881572H128.56L137.36 14.6816C139.733 18.4416 141.587 21.5082 142.92 23.8816C142.813 20.6816 142.76 15.8949 142.76 9.52157ZM172.593 0.881572V4.72157H156.553V12.7616H171.073V16.5216H156.553V25.5216H172.473V29.3616H152.273V0.881572H172.593ZM177.937 2.72157H174.737V0.881572H183.137V2.72157H179.937V11.0816H177.937V2.72157ZM190.337 6.04157L192.297 0.881572H194.817V11.0816H192.817V7.80157C192.817 6.14824 192.831 5.06824 192.857 4.56157L192.617 5.24157L190.417 11.0816H188.777L186.577 5.24157C186.551 5.16157 186.497 5.04157 186.417 4.88157C186.364 4.6949 186.324 4.56157 186.297 4.48157C186.324 5.0149 186.337 6.12157 186.337 7.80157V11.0816H184.377V0.881572H186.897L188.897 6.20157C189.137 6.76157 189.377 7.44157 189.617 8.24157C189.804 7.65491 190.044 6.92157 190.337 6.04157Z" fill="white"/>
</svg>
